<svg width="50" height="50" viewBox="0 0 50 50" fill="none" xmlns="http://www.w3.org/2000/svg">
<path d="M33.7854 3.73154L29.4553 6.23154C29.1009 4.99276 28.4759 3.91022 27.8509 2.82769C27.1115 2.17204 26.3722 1.51639 25.3621 1.017C24.3521 0.517596 23.4984 0.288831 22.5302 0.486948C21.5621 0.685065 20.4377 0.612549 19.6258 1.0813C18.8139 1.55005 18.002 2.0188 17.5026 3.02881C15.9206 4.66383 15.3487 6.79825 15.2037 9.04704C13.1837 8.04825 11.0492 7.47633 8.84231 8.02881C7.87416 8.22693 6.90601 8.42505 6.09412 8.8938C5.28222 9.36255 4.62657 10.1019 4.12717 11.1119C3.47152 11.8513 3.24276 12.7051 3.17024 13.8295C2.94147 14.6833 3.29584 15.922 3.49396 16.8902C4.11896 17.9727 4.74396 19.0553 5.63959 19.9815L1.30946 22.4815L0.737549 24.616L14.8 48.9729L16.9345 49.5448L49.4104 30.7948L49.9823 28.6604L35.9198 4.30345L33.7854 3.73154ZM30.2568 38.2448L16.7251 46.0573L4.22513 24.4066L17.7568 16.5941L30.2568 38.2448ZM16.1943 13.8878L8.07529 18.5753L7.76279 18.034C7.0234 17.3784 6.7109 16.8371 6.24215 16.0252C6.20029 15.3277 5.88779 14.7864 6.2728 14.2033C6.23093 13.5058 6.61595 12.9226 7.00097 12.3395C7.11535 11.9126 7.65662 11.6001 8.19788 11.2876C8.73915 10.9751 9.28041 10.6626 9.97793 10.6208C10.9461 10.4226 12.0705 10.4952 13.0805 10.9946C14.0905 11.494 15.1005 11.9934 15.7255 13.0759L16.1943 13.8878ZM18.4319 11.5134C17.8069 10.4309 17.8794 9.30646 17.9519 8.18206C18.0244 7.05766 18.5238 6.04764 19.1794 5.30826C19.5645 4.72513 20.1057 4.41263 20.647 4.10013C21.1883 3.78763 21.7295 3.47513 22.427 3.43326C23.1246 3.39139 23.5514 3.50578 24.4052 3.73454C24.8321 3.84893 25.1446 4.39019 25.7277 4.77521C26.1965 5.58711 26.509 6.12837 26.7071 7.09652C26.8633 7.36715 26.8633 7.36715 26.749 7.79404L18.9006 12.3253L18.4319 11.5134ZM46.4948 28.8698L32.9631 36.6823L20.4631 15.0316L33.9948 7.21912L46.4948 28.8698Z" fill="#CD1315"/>
</svg>
